<svg id="visual" viewBox="0 0 900 450" width="900" height="450" xmlns="http://www.w3.org/2000/svg" xmlns:xlink="http://www.w3.org/1999/xlink" version="1.1"><rect x="0" y="0" width="900" height="450" fill="#140021"></rect><path d="M417 0L424 0L424 64L357 64L357 129L432 129L432 193L402 193L402 257L508 257L508 321L511 321L511 386L496 386L496 450L0 450L0 386L0 386L0 321L0 321L0 257L0 257L0 193L0 193L0 129L0 129L0 64L0 64L0 0L0 0Z" fill="#75e6da"></path><path d="M311 0L225 0L225 64L239 64L239 129L281 129L281 193L253 193L253 257L210 257L210 321L342 321L342 386L378 386L378 450L0 450L0 386L0 386L0 321L0 321L0 257L0 257L0 193L0 193L0 129L0 129L0 64L0 64L0 0L0 0Z" fill="#44c0c9"></path><path d="M229 0L228 0L228 64L169 64L169 129L141 129L141 193L85 193L85 257L179 257L179 321L84 321L84 386L157 386L157 450L0 450L0 386L0 386L0 321L0 321L0 257L0 257L0 193L0 193L0 129L0 129L0 64L0 64L0 0L0 0Z" fill="#189ab4"></path></svg>